<svg xmlns="http://www.w3.org/2000/svg" xmlns:xlink="http://www.w3.org/1999/xlink" version="1.1"
     x="0px" y="0px" viewBox="0 0 1024 1024" style="enable-background:new 0 0 1024 1024;"
     xml:space="preserve"><g><g><g><path fill="#666" d="M891.8,922c-7.3,0-14.7,0-22,0c-19.9,0-39.7,0-59.6,0c-29.2,0-58.4,0-87.6,0c-35.2,0-70.3,0-105.5,0     c-38.2,0-76.5,0-114.7,0c-38,0-75.9,0-113.9,0c-34.5,0-69,0-103.5,0c-27.8,0-55.7,0-83.5,0c-17.9,0-35.9,0-53.8,0     c-4.3,0-8.6,0-13,0c-0.8,0-1.6,0-2.4,0c-0.1,0-0.1,0-0.2,0c-0.2,0-0.4,0-0.7,0c-0.9,0-1.9-0.1-2.8-0.1c-2.4-0.1,2.2,0.4-0.1,0     c-1.6-0.3-3.1-0.6-4.6-1c-0.9-0.2-1.7-0.5-2.6-0.8c-0.2-0.1-2.3-0.8-0.7-0.2c1.3,0.5-2.3-1.2-3-1.5c-1.5-0.9-3-1.8-4.4-2.8     c2.3,1.6-0.9-0.8-1.5-1.4c-1.1-1.1-2.1-2.2-3.2-3.3c-0.4-0.4-1.7-2.2-0.1,0c-0.4-0.5-0.8-1.1-1.1-1.6c-0.9-1.5-1.8-3-2.6-4.6     c-0.2-0.4-1.3-2.9-0.6-1.2c0.6,1.6-0.2-0.5-0.2-0.7c-0.4-1.5-0.9-3-1.3-4.5c-0.2-1-0.6-4.9-0.4-2.1c-0.1-1.4-0.2-2.8-0.2-4.2     c0-0.5,0-1,0-1.5c0-3.8,0-7.6,0-11.3c0-17.1,0-34.3,0-51.4c0-27.2,0-54.5,0-81.7c0-34.1,0-68.3,0-102.4c0-37.7,0-75.3,0-113     c0-38.3,0-76.7,0-115c0-35.6,0-71.3,0-106.9c0-29.7,0-59.5,0-89.2c0-20.6,0-41.2,0-61.8c0-8.4-0.1-16.8,0-25.3c0,0,0-0.1,0-0.1     c0-0.7,0-1.4,0.1-2.1c0-0.4,0.2-3.3,0-1.5c-0.2,1.7,0.2-1.1,0.3-1.4c0.3-1.5,0.7-3.1,1.2-4.6c0.3-0.9,0.6-1.7,0.9-2.5     c-0.1,0.2-1,2.1-0.2,0.5c0.7-1.4,1.4-2.8,2.2-4.1c0.5-0.9,3.2-4.5,1.4-2.3c1.9-2.4,4.1-4.5,6.5-6.5c-2.2,1.8,1-0.6,1.8-1.1     c1.5-0.9,3.1-1.7,4.6-2.5c2.1-1-2.1,0.7,0.1,0c0.6-0.2,1.3-0.4,1.9-0.6c1.5-0.5,3-0.9,4.6-1.2c0.4-0.1,3.3-0.4,1.4-0.3     c-1.7,0.2,0.6,0,0.8,0c0.9,0,1.9-0.1,2.8-0.1c2,0,4.1,0,6.1,0c14.2,0,28.4,0,42.6,0c25.1,0,50.2,0,75.2,0c32.8,0,65.5,0,98.3,0     c37.1,0,74.1,0,111.2,0c38.5,0,77,0,115.5,0c36.6,0,73.2,0,109.7,0c31.5,0,62.9,0,94.4,0c23.1,0,46.3,0,69.4,0     c11.6,0,23.2,0,34.8,0c0.7,0,1.5,0,2.2,0c0,0,0.1,0,0.1,0c1.2,0,2.3,0.1,3.5,0.1c2.4,0.1-2.2-0.4,0.1,0c0.9,0.2,1.8,0.3,2.7,0.5     c1.5,0.4,3,0.8,4.5,1.3c2.7,0.8,0.8,0.2,0.1,0c0.6,0.3,1.2,0.6,1.8,0.9c1.4,0.7,2.7,1.4,4,2.3c0.7,0.5,1.5,1,2.2,1.5     c-1.2-0.8-0.9-0.8,0,0.1c1.1,1.1,2.3,2.1,3.3,3.2c0.6,0.7,3,3.7,1.4,1.5c0.9,1.3,1.7,2.5,2.5,3.9c0.4,0.8,0.8,1.5,1.3,2.3     c0.1,0.3,1.2,2.8,0.6,1.2c-0.5-1.3,0.8,2.5,1,3.3c0.4,1.5,0.8,3.1,1,4.6c0.4,2.3-0.1-2.3,0,0.1c0,0.7,0.1,1.4,0.1,2.1     c0,0.5,0,1,0,1.4c0,0.6,0,1.2,0,1.7c0,11.1,0,22.2,0,33.3c0,22.8,0,45.5,0,68.3c0,31.2,0,62.4,0,93.6c0,36.4,0,72.9,0,109.3     c0,38.3,0,76.6,0,114.9c0,37.3,0,74.7,0,112c0,33,0,66,0,99c0,25.4,0,50.9,0,76.3c0,14.7,0,29.3,0,44c0,2.3,0,4.7,0,7     c0,0,0,0.1,0,0.1c0,0.9,0,1.3-0.1,2.1c0,0.7-0.1,1.4-0.1,2.1c0-0.6,0.6-2.8,0,0.1c-0.3,1.3-0.6,2.7-0.9,4c-0.2,0.7-2,5.5-0.8,2.7     c-1.2,2.6-2.7,5-4.2,7.4c-1.3,1.9,1.5-1.6-0.1,0.1c-0.4,0.5-0.9,1-1.3,1.5c-1,1.1-2.1,2.2-3.3,3.2c-0.3,0.3-2.4,2-1,0.9     c1.3-1-0.4,0.3-0.6,0.4c-1.3,0.8-2.6,1.7-3.9,2.4c-0.8,0.4-4.4,1.9-1.8,1c-1.5,0.5-3,1-4.5,1.4c-1.5,0.4-3.1,0.8-4.7,1     C897.9,921.6,892.5,922,891.8,922c-7.8,0.1-15.4,6.8-15,15c0.4,8,6.6,15.1,15,15c32.7-0.5,59.5-26.7,60.2-59.5c0-2.1,0-4.3,0-6.4     c0-14.2,0-28.3,0-42.5c0-25.4,0-50.8,0-76.2c0-33.1,0-66.2,0-99.3c0-37.6,0-75.2,0-112.8c0-38.8,0-77.6,0-116.4     c0-36.8,0-73.5,0-110.3c0-31.4,0-62.8,0-94.2c0-22.8,0-45.7,0-68.5c0-10.8,0-21.6,0-32.4C951.9,99,924.7,72.1,890.2,72     c-11,0-22.1,0-33.1,0c-22.9,0-45.8,0-68.7,0c-31.5,0-63,0-94.5,0c-36.8,0-73.6,0-110.4,0c-39,0-78,0-117,0     c-37.5,0-75.1,0-112.6,0c-33,0-66,0-98.9,0c-25.1,0-50.3,0-75.4,0c-14,0-28,0-42,0c-2.7,0-5.5-0.1-8.2,0.1     c-32,2-57,28.1-57.4,60.1c-0.1,7.7,0,15.4,0,23.1c0,20.4,0,40.7,0,61.1c0,29.7,0,59.5,0,89.2c0,35.8,0,71.7,0,107.5     c0,38.6,0,77.3,0,115.9c0,38.2,0,76.3,0,114.5c0,34.4,0,68.8,0,103.2c0,27.3,0,54.7,0,82c0,17.1,0,34.1,0,51.2     c0,3.6,0,7.2,0,10.7c0.1,17.6,7,34.9,20.5,46.4c11.8,10,26,15,41.4,15c3.9,0,7.9,0,11.8,0c17.6,0,35.2,0,52.7,0     c27.8,0,55.5,0,83.3,0c34.8,0,69.6,0,104.4,0c38.3,0,76.5,0,114.8,0c38.6,0,77.1,0,115.7,0c35.6,0,71.2,0,106.8,0     c29.3,0,58.7,0,88,0c19.8,0,39.6,0,59.4,0c7,0,13.9,0,20.9,0c7.8,0,15.4-6.9,15-15C906.4,928.9,900.2,922,891.8,922z"/></g></g><g><g><path fill="#666" d="M636.8,226c0,32.4,0,64.8,0,97.2c0,51.2,0,102.4,0,153.6c0,11.7,0,23.5,0,35.2c5-5,10-10,15-15     c-31.5,0-63.1,0-94.6,0c-50.2,0-100.4,0-150.6,0c-11.5,0-22.9,0-34.4,0c5,5,10,10,15,15c0-32.4,0-64.8,0-97.2     c0-51.2,0-102.4,0-153.6c0-11.7,0-23.5,0-35.2c-5,5-10,10-15,15c31.5,0,63.1,0,94.6,0c50.2,0,100.4,0,150.6,0     c11.5,0,22.9,0,34.4,0c7.8,0,15.4-6.9,15-15c-0.4-8.1-6.6-15-15-15c-31.5,0-63.1,0-94.6,0c-50.2,0-100.4,0-150.6,0     c-11.5,0-22.9,0-34.4,0c-8.1,0-15,6.9-15,15c0,32.4,0,64.8,0,97.2c0,51.2,0,102.4,0,153.6c0,11.7,0,23.5,0,35.2     c0,8.1,6.9,15,15,15c31.5,0,63.1,0,94.6,0c50.2,0,100.4,0,150.6,0c11.5,0,22.9,0,34.4,0c8.1,0,15-6.9,15-15c0-32.4,0-64.8,0-97.2     c0-51.2,0-102.4,0-153.6c0-11.7,0-23.5,0-35.2c0-7.8-6.9-15.4-15-15C643.6,211.4,636.8,217.6,636.8,226z"/></g></g><g><g><path fill="#666" d="M637.3,516c5.6,22,11.3,44,16.9,66c9,34.9,17.9,69.8,26.9,104.8c2.1,8.1,4.1,16.1,6.2,24.2     c4.8-6.3,9.6-12.7,14.5-19c-12.5,0-25,0-37.6,0c-30.3,0-60.5,0-90.8,0c-36.5,0-72.9,0-109.4,0c-31.7,0-63.4,0-95,0     c-15.3,0-30.8-0.9-46.1,0c-0.2,0-0.5,0-0.7,0c4.8,6.3,9.6,12.7,14.5,19c5.6-22,11.3-44,16.9-66c9-34.9,17.9-69.8,26.9-104.8     c2.1-8.1,4.1-16.1,6.2-24.2c-4.8,3.7-9.6,7.3-14.5,11c31.5,0,63.1,0,94.6,0c50.2,0,100.4,0,150.6,0c11.5,0,22.9,0,34.4,0     c7.8,0,15.4-6.9,15-15c-0.4-8.1-6.6-15-15-15c-31.5,0-63.1,0-94.6,0c-50.2,0-100.4,0-150.6,0c-11.5,0-22.9,0-34.4,0     c-6.5,0-12.8,4.6-14.5,11c-5.6,22-11.3,44-16.9,66c-9,34.9-17.9,69.8-26.9,104.8c-2.1,8.1-4.1,16.1-6.2,24.2     c-2.4,9.4,4.6,19,14.5,19c12.5,0,25,0,37.6,0c30.3,0,60.5,0,90.8,0c36.5,0,72.9,0,109.4,0c31.7,0,63.4,0,95,0     c15.3,0,30.8,0.5,46.1,0c0.2,0,0.5,0,0.7,0c9.9,0,16.9-9.6,14.5-19c-5.6-22-11.3-44-16.9-66c-9-34.9-17.9-69.8-26.9-104.8     c-2.1-8.1-4.1-16.1-6.2-24.2c-2-7.8-10.7-12.6-18.5-10.5C639.8,499.7,635.3,508.1,637.3,516z"/></g></g><g><g><path d="M688.8,699.4c-14.6,26.5-29.2,53.1-43.7,79.6c-2.1,3.8-4.2,7.6-6.3,11.4c4.3-2.5,8.6-5,13-7.4     c-31.5,0-63.1,0-94.6,0c-50.2,0-100.4,0-150.6,0c-11.5,0-22.9,0-34.4,0c4.3,2.5,8.6,5,13,7.4c-14.6-26.5-29.2-53.1-43.7-79.6     c-2.1-3.8-4.2-7.6-6.3-11.4c-4.3,7.5-8.6,15-13,22.6c12.5,0,25,0,37.6,0c30.3,0,60.5,0,90.8,0c36.5,0,72.9,0,109.4,0     c31.7,0,63.4,0,95,0c15.3,0,30.8,0.5,46.1,0c0.2,0,0.5,0,0.7,0c7.8,0,15.4-6.9,15-15c-0.4-8.1-6.6-15-15-15c-12.5,0-25,0-37.6,0     c-30.3,0-60.5,0-90.8,0c-36.5,0-72.9,0-109.4,0c-31.7,0-63.4,0-95,0c-15.3,0-30.8-0.5-46.1,0c-0.2,0-0.5,0-0.7,0     c-11.6,0-18.4,12.7-13,22.6c14.6,26.5,29.2,53.1,43.7,79.6c2.1,3.8,4.2,7.6,6.3,11.4c2.5,4.6,7.8,7.4,13,7.4     c31.5,0,63.1,0,94.6,0c50.2,0,100.4,0,150.6,0c11.5,0,22.9,0,34.4,0c5.2,0,10.4-2.8,13-7.4c14.6-26.5,29.2-53.1,43.7-79.6     c2.1-3.8,4.2-7.6,6.3-11.4c3.9-7.1,1.7-16.4-5.4-20.5C702.5,690,692.7,692.3,688.8,699.4z" fill="#666" /></g></g></g>
</svg>
