<?xml version="1.0" encoding="utf-8"?>
<svg viewBox="27.235 14.331 265.869 238.859" xmlns="http://www.w3.org/2000/svg" xmlns:bx="https://boxy-svg.com">
  <g transform="matrix(0.765683, 0, 0, 0.765683, -27.071142, -24.830475)" style="">
    <path d="M 103.802 162.888 C 103.802 166.793 102.188 170.32 99.591 172.84 C 102.766 182.774 109.183 219.434 107.922 253.36 L 108.084 253.36 C 91.23 261.3 69.03 254.289 71.054 253.336 L 71.097 253.336 C 69.811 218.618 76.56 181.044 79.647 172.183 C 77.424 169.724 76.07 166.464 76.07 162.888 C 76.07 155.465 81.902 149.405 89.234 149.039 C 90.11 138.098 94.258 108.687 95.723 108.497 L 101.699 109.076 C 100.227 109.267 96.197 139.252 95.33 150.11 C 100.308 152.214 103.802 157.143 103.802 162.888 Z" style="fill: rgb(255, 222, 1);">
    </path>
    <g style="">
      <path style="fill: rgb(186, 160, 144);" d="M 196.069 157.806 C 195.484 154.663 126.725 130.838 121.095 133.822 C 113.032 135.659 110.506 229.838 121.095 227.425 L 196.069 157.806 Z"/>
      <path style="fill: rgb(159, 63, 40);" d="M 139.444 203.558 C 128.173 217.857 127.373 164.643 131.78 154.192 C 131.945 153.452 178.732 163.817 178.287 165.811 L 139.444 203.558 Z"/>
    </g>
    <g transform="matrix(-1, 0, 0, 1, 501.949432, 0.000397)" style="">
      <path style="fill: rgb(185, 160, 144);" d="M 196.069 157.806 C 195.484 154.663 126.725 130.838 121.095 133.822 C 113.032 135.659 110.506 229.838 121.095 227.425 L 196.069 157.806 Z"/>
      <path style="fill: rgb(159, 63, 40);" d="M 139.444 203.558 C 128.173 217.857 127.373 164.643 131.78 154.192 C 131.945 153.452 178.732 163.817 178.287 165.811 L 139.444 203.558 Z"/>
    </g>
    <path style="fill: rgb(217, 193, 178); stroke-width: 8px; stroke-linecap: round;" d="M 252.106 155.072 C 338.04 159.173 381.88 200 389.95 252.152 C 404.019 348.242 329.511 360.508 252.01 363.102 C 252.009 363.102 252.009 363.102 252.009 363.102 C 174.508 360.508 100 348.242 114.069 252.152 C 122.118 200.133 165.755 159.382 251.254 155.104 C 251.504 155.047 251.759 155.036 252.02 155.072 L 252.106 155.072 Z">
    </path>
    <g>
      <path style="stroke-linecap: round; stroke: rgb(142, 117, 101); fill: rgb(141, 117, 101); stroke-width: 7px;" d="M 251.833 219.779 L 244.434 182.858 L 259.232 182.858 L 251.833 219.779"/>
      <path style="stroke-linecap: round; stroke: rgb(142, 117, 101); fill: rgb(141, 117, 101); stroke-width: 7px;" d="M 276.321 213.601 L 268.922 176.68 L 283.72 176.68 L 276.321 213.601" transform="matrix(0.978148, 0.207912, -0.207912, 0.978148, 46.610265, -53.186077)"/>
      <path style="stroke-linecap: round; stroke: rgb(142, 117, 101); fill: rgb(141, 117, 101); stroke-width: 7px;" d="M 227.464 176.68 L 220.065 213.602 L 234.863 213.602 L 227.464 176.68" transform="matrix(-0.978148, 0.207912, -0.207912, -0.978148, 490.529484, 338.725225)"/>
    </g>
    <g>
      <path style="fill: rgb(34, 59, 67);" d="M 251.115 196.96 C 143.821 188.566 157.323 193.095 161.948 128.249 L 340.282 128.249 C 344.907 193.095 358.409 188.566 251.115 196.96"/>
      <path d="M 234.566 57.219 Q 252.051 52.085 269.536 57.219 L 409.414 98.295 Q 426.899 103.429 409.414 108.563 L 269.536 149.639 Q 252.051 154.773 234.566 149.639 L 94.688 108.563 Q 77.203 103.429 94.688 98.295 Z" style="stroke: rgb(0, 0, 0); fill: rgb(18, 12, 9);" bx:shape="n-gon 252.051 103.429 174.848 51.344 4 0.1 1@b8465d37"/>
      <path d="M 251.662 51.146 L 382.229 90.008 L 251.662 128.87 L 121.095 90.008 Z" style="fill: rgb(34, 59, 67);" bx:shape="n-gon 251.662 90.008 130.567 38.862 4 0 1@c257973e"/>
    </g>
    <g transform="matrix(1, 0, 0.000011, 1, 1.186845, 2.613854)" style="">
      <path style="stroke: rgb(0, 0, 0); fill: rgb(251, 161, 190);" d="M 251.393 333.763 C 251.299 333.76 251.202 333.754 251.104 333.745 C 251.006 333.754 250.91 333.76 250.815 333.763 L 250.815 333.707 C 243.13 332.463 225.909 311.392 232.683 304.938 L 250.815 289.438 L 250.815 289.137 L 250.991 289.288 L 251.301 289.023 L 251.302 289.553 L 269.433 305.052 C 276.207 311.506 259.074 332.469 251.393 333.707 Z"/>
      <path style="stroke-width: 8px; stroke-linecap: round; fill: none; stroke: rgb(0, 0, 0);" d="M 213.116 293.831 C 228.381 321.204 253.47 290.548 250.587 280.985"/>
      <path style="stroke: rgb(0, 0, 0); fill: rgb(4, 2, 2);" d="M 250.815 283.566 C 258.237 283.566 269.702 277.213 269.523 268.761 C 269.379 261.963 257.933 259.241 250.815 259.136 L 250.815 283.566 Z M 250.815 283.566 C 243.393 283.566 231.928 277.213 232.107 268.761 C 232.251 261.963 243.399 259.128 250.816 259.137 L 250.815 283.566 Z"/>
      <path style="stroke-width: 8px; stroke-linecap: round; fill: none; stroke: rgb(0, 0, 0);" d="M 250.815 292.092 C 266.08 264.719 291.169 295.375 288.286 304.938" transform="matrix(-1, 0, 0, -1, 539.32933, 585.92357)"/>
      <path style="stroke: rgb(0, 0, 0); stroke-width: 8px; stroke-linecap: round; fill: none;" d="M 270.563 304.938 C 270.019 343.355 230.159 343.355 230.159 305.037"/>
    </g>
    <g>
      <ellipse style="fill: rgb(4, 2, 2);" cx="185.935" cy="253.474" rx="22.54" ry="26.003"/>
      <path style="fill: rgb(216, 216, 216); stroke-width: 10px; stroke-linecap: round; stroke: rgb(0, 0, 0);" d="M 128.837 281.847 C 152.301 279.477 157.594 282.648 168.054 283.566"/>
      <path style="fill: rgb(216, 216, 216); stroke-width: 10px; stroke-linecap: round; stroke: rgb(0, 0, 0);" d="M 122.139 309.07 C 128.837 305.415 148.697 296.063 169.925 295.956"/>
      <path style="fill: rgb(216, 216, 216); stroke-width: 10px; stroke-linecap: round; stroke: rgb(0, 0, 0);" d="M 134.84 325.574 C 143.481 318.754 156.875 312.953 169.925 308.852"/>
      <ellipse style="fill: rgb(255, 255, 255);" cx="180.822" cy="243.967" rx="6.239" ry="8.136"/>
    </g>
    <g transform="matrix(-1, 0, 0, 1, 503.632019, 0)">
      <ellipse style="fill: rgb(4, 2, 2);" cx="185.935" cy="253.474" rx="22.54" ry="26.003"/>
      <path style="fill: rgb(216, 216, 216); stroke-width: 10px; stroke-linecap: round; stroke: rgb(0, 0, 0);" d="M 128.837 281.847 C 152.301 279.477 157.594 282.648 168.054 283.566"/>
      <path style="fill: rgb(216, 216, 216); stroke-width: 10px; stroke-linecap: round; stroke: rgb(0, 0, 0);" d="M 122.139 309.07 C 128.837 305.415 148.697 296.063 169.925 295.956"/>
      <path style="fill: rgb(216, 216, 216); stroke-width: 10px; stroke-linecap: round; stroke: rgb(0, 0, 0);" d="M 134.84 325.574 C 143.481 318.754 156.875 312.953 169.925 308.852"/>
      <ellipse style="fill: rgb(255, 255, 255);" cx="-191.386" cy="244.302" rx="6.239" ry="8.136" transform="matrix(-1, 0, 0, 1, 0, 0)"/>
    </g>
  </g>
</svg>
